<?xml version="1.0" standalone="no"?><!DOCTYPE svg PUBLIC "-//W3C//DTD SVG 1.1//EN" "http://www.w3.org/Graphics/SVG/1.1/DTD/svg11.dtd"><svg t="1690774113437" class="icon" viewBox="0 0 1025 1024" version="1.1" xmlns="http://www.w3.org/2000/svg" p-id="4309" xmlns:xlink="http://www.w3.org/1999/xlink" width="128.125" height="128"><path d="M525.354 79.891c25.407 0 46.004 20.583 46.004 45.974v204.803c0 19.043 15.447 34.481 34.503 34.481h218.694c25.407 0 46.003 20.583 46.003 45.974v420.448c0 69.825-56.64 126.429-126.51 126.429H249.51C179.64 958 123 901.396 123 831.57V206.32c0-69.825 56.64-126.429 126.51-126.429h275.844zM492.05 751.116c-9.546 0-18.137 2.86-24.82 9.536-6.682 6.198-10.023 14.303-10.023 24.316 0 9.536 3.341 17.641 10.024 24.317 6.682 6.675 15.273 10.012 24.82 10.012 9.545 0 18.137-3.337 24.819-9.536 6.682-6.675 10.5-14.78 10.5-24.793s-3.34-18.118-10.023-24.316c-6.682-6.676-15.273-9.536-25.297-9.536z m8.592-310.327c-35.32 0-63.004 10.013-83.05 30.515-18.955 18.935-28.949 44.263-29.981 76.39a60.36 60.36 0 0 0-0.019 1.33c0 13.8 11.188 24.987 24.988 24.987 13.783 0 24.999-11.094 25.149-24.877 0.01-0.955 0.021-1.571 0.033-1.848 0.759-18.082 5.013-32.284 12.763-42.606 9.546-13.827 25.297-20.503 46.776-20.503 17.182 0 31.024 4.768 40.57 14.304 9.069 9.536 13.842 22.41 13.842 39.097 0 12.397-4.773 23.84-13.365 34.806l-8.114 9.06c-29.592 26.223-47.73 45.772-53.935 59.122-6.682 12.396-9.546 27.654-9.546 45.295v14.587c0 14.103 11.433 25.536 25.536 25.536 14.103 0 25.535-11.433 25.535-25.536v-14.587c0-11.443 2.387-21.932 7.637-31.468 4.296-8.582 10.978-17.165 20.047-24.793 22.433-19.549 35.797-31.946 40.093-37.19 11.932-15.258 18.137-34.806 18.137-58.17 0-28.607-9.546-51.493-28.638-68.18-19.092-17.165-43.911-25.27-74.458-25.27zM619.837 76.995a18.4 18.4 0 0 1 12.725 5.109l234.743 224.735c7.34 7.028 7.595 18.675 0.567 26.016a18.4 18.4 0 0 1-13.291 5.675H633.637c-17.783 0-32.2-14.416-32.2-32.2V95.395c0-10.162 8.238-18.4 18.4-18.4z" fill="#1296db" p-id="4310"></path></svg>